# xmcd CD database file
# Copyright (C) 1996 Ti Kan
#
# Track frame offsets:
#  150
#  12377
#  23562
#  35337
#  48055
#  58772
#  71815
#  83145
#  96125
#  108067
#  119052
#  129362
#  140125
#  150467
#  160427
#  171145
#  181100
#  192990
#  202875
#  215990
#  225772
#  237050
#  249800
#  260875
#
# Disc length: 3611 seconds
#
# Revision: 1
# Processed by: cddbd v1.4b41PL1 Copyright (c) Steve Scherf et al.
# Submitted via: CDWizzard Release:4.10
#
DISCID=420e1918
DTITLE=Jean Shepard - Jean Shepard: Honky-Tonk Heroine
DYEAR=1900
DGENRE=
TTITLE0=Twice the Lovin' (in Half the Time)
TTITLE1=Crying Steel Guitar Waltz
TTITLE2=A Dear John Letter
TTITLE3=My Wedding Ring
TTITLE4=Two Whoops and a Holler
TTITLE5=Don't Fall in Love with a Married Man
TTITLE6=A Satisfied Mind
TTITLE7=Beautiful Lies
TTITLE8=Sad Singin' and Slow Ridin'
TTITLE9=Under Suspicion
TTITLE10=I Want to Go Where No One Knows Me
TTITLE11=The Other Woman
TTITLE12=Act Like a Married Man
TTITLE13=A Thief in the Night
TTITLE14=He's My baby
TTITLE15=How Do I Tell It to a Child
TTITLE16=Color Song (I Lost My Love)
TTITLE17=The Root of All Evil (Is a Man)
TTITLE18=Under Your Spell Again
TTITLE19=One White Rose
TTITLE20=I've Learned to Live with You (and Be Alone)
TTITLE21=That's What Lonesome Is
TTITLE22=Cigarettes and Coffee Blues
TTITLE23=Second Fiddle (to an Old Guitar)
EXTD=
EXTT0=Jean Shepard
EXTT1=Jean Shepard
EXTT2=Jean Shepard with Ferlin Husky
EXTT3=Jean Shepard
EXTT4=Jean Shepard
EXTT5=Jean Shepard
EXTT6=Jean Shepard
EXTT7=Jean Shepard
EXTT8=Jean Shepard
EXTT9=Jean Shepard
EXTT10=Jean Shepard
EXTT11=Jean Shepard
EXTT12=Jean Shepard
EXTT13=Jean Shepard
EXTT14=Jean Shepard
EXTT15=Jean Shepard
EXTT16=Jean Shepard
EXTT17=Jean Shepard
EXTT18=Jean Shepard
EXTT19=Jean Shepard
EXTT20=Jean Shepard
EXTT21=Jean Shepard
EXTT22=Jean Shepard
EXTT23=Jean Shepard
PLAYORDER=
